<?xml version="1.0" standalone="no"?>
<!DOCTYPE svg PUBLIC "-//W3C//DTD SVG 20010904//EN"
 "http://www.w3.org/TR/2001/REC-SVG-20010904/DTD/svg10.dtd">
<svg version="1.0" xmlns="http://www.w3.org/2000/svg"
 width="372.000000pt" height="521.301886pt" viewBox="0 0 372.000000 521.301886"
 preserveAspectRatio="xMidYMid meet">
<metadata>
Created by potrace 1.12, written by Peter Selinger 2001-2015
</metadata>
<g transform="translate(-20.500000,591.801886) scale(0.100000,-0.100000)"
fill="#000000" stroke="none">
<path d="M727 5913 c-4 -3 -7 -1167 -7 -2584 l0 -2579 -257 -2 c-250 -3 -258
-4 -258 -23 0 -20 7 -20 1860 -20 1853 0 1860 0 1860 20 0 20 -8 20 -1577 23
l-1578 2 0 2078 0 2077 438 482 437 483 423 0 422 0 0 -379 0 -379 -62 -11
c-242 -42 -411 -275 -370 -511 44 -260 304 -430 555 -365 85 22 149 58 210
118 179 174 179 454 2 632 -72 72 -138 105 -258 130 l-28 6 1 402 2 402 -904
3 c-498 1 -908 -1 -911 -5z m843 -48 c0 -3 -180 -204 -400 -446 l-400 -440 0
446 0 445 400 0 c220 0 400 -2 400 -5z m1033 -820 c32 -8 75 -24 96 -35 64
-32 139 -113 174 -187 29 -62 32 -77 32 -163 0 -86 -3 -101 -32 -163 -149
-314 -588 -313 -737 2 -28 60 -31 75 -31 161 0 88 3 101 33 162 89 182 278
272 465 223z"/>
</g>
</svg>
