<?xml version="1.0" standalone="no"?>
<!DOCTYPE svg PUBLIC "-//W3C//DTD SVG 20010904//EN"
 "http://www.w3.org/TR/2001/REC-SVG-20010904/DTD/svg10.dtd">
<svg version="1.0" xmlns="http://www.w3.org/2000/svg"
 width="372.000000pt" height="521.487635pt" viewBox="0 0 372.000000 521.487635"
 preserveAspectRatio="xMidYMid meet">
<metadata>
Created by potrace 1.12, written by Peter Selinger 2001-2015
</metadata>
<g transform="translate(-20.500000,591.987635) scale(0.100000,-0.100000)"
fill="#000000" stroke="none">
<path d="M727 5913 c-4 -3 -7 -1167 -7 -2584 l0 -2579 -257 -2 c-250 -3 -258
-4 -258 -23 0 -20 7 -20 1860 -20 1853 0 1860 0 1860 20 0 20 -8 20 -1577 23
l-1578 2 0 2078 0 2077 438 482 437 483 423 0 422 0 0 -380 0 -380 25 0 24 0
3 398 c2 218 2 400 0 405 -4 9 -1806 10 -1815 0z m843 -48 c0 -3 -180 -204
-400 -446 l-400 -440 0 446 0 445 400 0 c220 0 400 -2 400 -5z"/>
<path d="M2371 4359 c-228 -45 -392 -281 -353 -509 32 -189 180 -337 371 -372
l61 -12 0 -124 c0 -68 -4 -122 -9 -120 -5 2 -189 136 -410 298 -221 162 -409
295 -419 295 -58 0 -8 -43 385 -332 224 -165 418 -306 431 -314 l22 -14 0
-592 0 -592 -316 -571 c-187 -338 -313 -578 -310 -586 3 -9 13 -14 22 -12 10
2 134 216 315 543 164 297 302 541 306 542 5 2 133 -245 286 -547 177 -350
284 -550 293 -550 8 0 17 7 20 15 3 8 -120 263 -280 579 l-286 565 1 608 0
608 425 314 c410 303 461 346 402 346 -10 0 -194 -131 -410 -291 -216 -160
-399 -294 -405 -298 -10 -6 -13 20 -13 113 l0 120 53 11 c238 49 399 278 359
510 -43 253 -287 419 -541 369z m192 -54 c32 -8 75 -24 96 -35 64 -32 139
-113 174 -187 29 -62 32 -77 32 -163 0 -86 -3 -101 -32 -163 -149 -314 -588
-313 -737 2 -28 60 -31 75 -31 161 0 88 3 101 33 162 89 182 278 272 465 223z"/>
<path d="M2255 4045 c-14 -13 -25 -36 -25 -50 0 -33 42 -75 75 -75 33 0 75 42
75 75 0 33 -42 75 -75 75 -14 0 -37 -11 -50 -25z m73 -48 c4 -20 -25 -34 -40
-19 -15 15 -1 44 19 40 10 -2 19 -11 21 -21z"/>
<path d="M2575 4045 c-14 -13 -25 -36 -25 -50 0 -14 11 -37 25 -50 13 -14 36
-25 50 -25 14 0 37 11 50 25 14 13 25 36 25 50 0 14 -11 37 -25 50 -13 14 -36
25 -50 25 -14 0 -37 -11 -50 -25z m73 -48 c4 -20 -25 -34 -40 -19 -15 15 -1
44 19 40 10 -2 19 -11 21 -21z"/>
<path d="M2134 3885 c-9 -23 61 -110 124 -155 134 -96 316 -95 435 3 46 38
102 129 93 152 -11 29 -34 14 -64 -38 -52 -91 -134 -138 -242 -139 -108 0
-202 50 -277 146 -37 47 -59 57 -69 31z"/>
</g>
</svg>
